<svg width="25" height="24" viewBox="0 0 25 24" fill="none" xmlns="http://www.w3.org/2000/svg">
<path fill-rule="evenodd" clip-rule="evenodd" d="M7.76827 1.25H16.8977C17.4676 1.24998 17.9516 1.24997 18.3515 1.29132C18.7773 1.33534 19.1708 1.43094 19.5426 1.66071C19.9144 1.89048 20.1759 2.19971 20.4057 2.56088C20.6215 2.9001 20.8379 3.33297 21.0928 3.8428L21.1093 3.87574C21.119 3.89518 21.1279 3.91504 21.1359 3.93526L22.5395 7.4834C22.7065 7.90559 22.8916 8.4323 22.9457 8.97128C23.0011 9.52258 22.9251 10.1541 22.4931 10.7019C22.1398 11.15 21.6485 11.4863 21.083 11.6463V21.25H22.333C22.7472 21.25 23.083 21.5858 23.083 22C23.083 22.4142 22.7472 22.75 22.333 22.75H2.33301C1.9188 22.75 1.58301 22.4142 1.58301 22C1.58301 21.5858 1.9188 21.25 2.33301 21.25H3.58301V11.6464C3.01747 11.4863 2.52613 11.15 2.17276 10.7019C1.7408 10.1541 1.66483 9.52257 1.72019 8.97127C1.77431 8.43229 1.9594 7.90559 2.12641 7.4834L3.53002 3.93526C3.53802 3.91504 3.54689 3.89518 3.55662 3.87574L3.57311 3.84275C3.82799 3.33295 4.0444 2.90009 4.26024 2.56088C4.49005 2.19971 4.75154 1.89048 5.12332 1.66071C5.49509 1.43094 5.88862 1.33534 6.31443 1.29132C6.71435 1.24997 7.1983 1.24998 7.76827 1.25ZM18.3329 10.8875C18.6689 11.2433 19.0988 11.5096 19.583 11.6465V21.25H15.583V18.4678C15.583 18.028 15.583 17.6486 15.5548 17.3374C15.525 17.0082 15.4589 16.6822 15.2816 16.375C15.0841 16.033 14.8 15.7489 14.458 15.5514C14.1508 15.3741 13.8248 15.308 13.4957 15.2782C13.1844 15.25 12.805 15.25 12.3652 15.25H12.3008C11.861 15.25 11.4816 15.25 11.1703 15.2782C10.8412 15.308 10.5152 15.3741 10.208 15.5514C9.86597 15.7489 9.58193 16.033 9.38445 16.375C9.20708 16.6822 9.14103 17.0082 9.11119 17.3374C9.08298 17.6486 9.08299 18.028 9.08301 18.4677V21.25H5.08301V11.6465C5.56714 11.5095 5.99699 11.2433 6.33293 10.8875C6.83431 11.4186 7.54491 11.75 8.33292 11.75C9.12094 11.75 9.83154 11.4186 10.3329 10.8875C10.8343 11.4186 11.5449 11.75 12.3329 11.75C13.1209 11.75 13.8315 11.4186 14.3329 10.8875C14.8343 11.4186 15.5449 11.75 16.3329 11.75C17.1209 11.75 17.8315 11.4186 18.3329 10.8875ZM10.583 21.25H14.083V18.5C14.083 18.0189 14.0823 17.7082 14.0609 17.4727C14.0405 17.2476 14.0061 17.1659 13.9825 17.125C13.9167 17.011 13.822 16.9163 13.708 16.8505C13.6671 16.8269 13.5854 16.7925 13.3603 16.7721C13.1248 16.7507 12.8141 16.75 12.333 16.75C11.8519 16.75 11.5412 16.7507 11.3057 16.7721C11.0806 16.7925 10.9989 16.8269 10.958 16.8505C10.844 16.9163 10.7493 17.011 10.6835 17.125C10.6599 17.1659 10.6255 17.2476 10.6051 17.4727C10.5837 17.7082 10.583 18.0189 10.583 18.5V21.25ZM7.08292 9C7.08292 9.69036 7.64257 10.25 8.33292 10.25C9.02328 10.25 9.58292 9.69036 9.58292 9C9.58292 8.58579 9.91871 8.25 10.3329 8.25C10.7471 8.25 11.0829 8.58579 11.0829 9C11.0829 9.69036 11.6426 10.25 12.3329 10.25C13.0233 10.25 13.5829 9.69036 13.5829 9C13.5829 8.58579 13.9187 8.25 14.3329 8.25C14.7471 8.25 15.0829 8.58579 15.0829 9C15.0829 9.69036 15.6426 10.25 16.3329 10.25C17.0233 10.25 17.5829 9.69036 17.5829 9C17.5829 8.58579 17.9187 8.25 18.3329 8.25C18.7471 8.25 19.0829 8.58579 19.0829 9C19.0829 9.69036 19.6426 10.25 20.3329 10.25C20.7309 10.25 21.0852 10.0649 21.3153 9.77305C21.4292 9.62859 21.4843 9.43094 21.4532 9.12114C21.4209 8.79903 21.302 8.43275 21.1447 8.03518L19.7531 4.51739C19.4854 3.98204 19.3065 3.62749 19.1401 3.36612C18.9802 3.1147 18.8655 3.00562 18.754 2.93669C18.6425 2.86776 18.4936 2.81401 18.1972 2.78336C17.8835 2.75093 17.4776 2.75 16.8608 2.75H7.80515C7.18834 2.75 6.78241 2.75093 6.4687 2.78336C6.17228 2.81401 6.02345 2.86776 5.91191 2.93669C5.80038 3.00562 5.68575 3.1147 5.52577 3.36612C5.35947 3.62749 5.18056 3.98204 4.91284 4.51739L3.52124 8.03518C3.36396 8.43275 3.24503 8.79903 3.21268 9.12115C3.18157 9.43095 3.23667 9.62861 3.3506 9.77307C3.58071 10.0649 3.93497 10.25 4.33292 10.25C5.02328 10.25 5.58292 9.69036 5.58292 9C5.58292 8.58579 5.91871 8.25 6.33292 8.25C6.74714 8.25 7.08292 8.58579 7.08292 9Z" fill="#797979"/>
</svg>
